<?xml version="1.0" encoding="UTF-8" standalone="no"?>
<svg width="60px" height="53px" viewBox="0 0 60 53" version="1.1" xmlns="http://www.w3.org/2000/svg" xmlns:xlink="http://www.w3.org/1999/xlink" xmlns:sketch="http://www.bohemiancoding.com/sketch/ns">
    <!-- Generator: Sketch 3.3.2 (12043) - http://www.bohemiancoding.com/sketch -->
    <title>Untitled</title>
    <desc>Created with Sketch.</desc>
    <defs>
        <path id="path-1" d="M0.00372631579,0.998492908 L59.0178863,0.998492908 L59.0178863,51.996383 L0.00372631579,51.996383 L0.00372631579,0.998492908 L0.00372631579,0.998492908 Z"></path>
        <path id="path-3" d="M0.00372631579,0.998492908 L59.0178863,0.998492908 L59.0178863,51.996383 L0.00372631579,51.996383 L0.00372631579,0.998492908 L0.00372631579,0.998492908 Z"></path>
        <path id="path-5" d="M0.00372631579,0.998492908 L59.0178863,0.998492908 L59.0178863,51.996383 L0.00372631579,51.996383 L0.00372631579,0.998492908 L0.00372631579,0.998492908 Z"></path>
        <path id="path-7" d="M0.00372631579,0.998492908 L59.0178863,0.998492908 L59.0178863,51.996383 L0.00372631579,51.996383 L0.00372631579,0.998492908 L0.00372631579,0.998492908 Z"></path>
        <path id="path-9" d="M0.00372631579,0.998492908 L59.0178863,0.998492908 L59.0178863,51.996383 L0.00372631579,51.996383 L0.00372631579,0.998492908 L0.00372631579,0.998492908 Z"></path>
        <path id="path-11" d="M0.00372631579,0.998492908 L59.0178863,0.998492908 L59.0178863,51.996383 L0.00372631579,51.996383 L0.00372631579,0.998492908 L0.00372631579,0.998492908 Z"></path>
        <path id="path-13" d="M0.00372631579,0.998492908 L59.0178863,0.998492908 L59.0178863,51.996383 L0.00372631579,51.996383 L0.00372631579,0.998492908 L0.00372631579,0.998492908 Z"></path>
        <path id="path-15" d="M0.00372631579,0.998492908 L59.0178863,0.998492908 L59.0178863,51.996383 L0.00372631579,51.996383 L0.00372631579,0.998492908 L0.00372631579,0.998492908 Z"></path>
    </defs>
    <g id="Page-1" stroke="none" stroke-width="1" fill="none" fill-rule="evenodd" sketch:type="MSPage">
        <g id="intrepid_logo" sketch:type="MSLayerGroup">
            <g id="Page-1">
                <g id="About_Qup">
                    <g id="Bottom">
                        <g id="intrepid_logo">
                            <g id="Group-10">
                                <g id="mask-2" fill="#FFFFFF" sketch:type="MSShapeGroup">
                                    <path d="M0.00372631579,0.998492908 L59.0178863,0.998492908 L59.0178863,51.996383 L0.00372631579,51.996383 L0.00372631579,0.998492908 L0.00372631579,0.998492908 Z" id="path-1"></path>
                                </g>
                                <g id="Clip-2" transform="translate(0.000000, 1.000000)"></g>
                                <g id="Fill-1-Clipped">
                                    <mask id="mask-2" sketch:name="path-1" fill="white">
                                        <use xlink:href="#path-1"></use>
                                    </mask>
                                    <g id="path-1"></g>
                                    <path d="M0.00372631579,46.6823759 L0.907978947,46.6823759 L0.907978947,51.996383 L0.00372631579,51.996383 L0.00372631579,46.6823759 L0.00372631579,46.6823759 Z" id="Fill-1" fill="#5A5D5F" sketch:type="MSShapeGroup" mask="url(#mask-2)"></path>
                                </g>
                                <g id="Fill-3-Clipped">
                                    <mask id="mask-4" sketch:name="path-1" fill="white">
                                        <use xlink:href="#path-3"></use>
                                    </mask>
                                    <g id="path-1"></g>
                                    <path d="M5.15976737,46.6746596 L8.80702316,49.8618582 L8.80702316,46.6746596 L9.72220632,46.6746596 L9.72220632,51.992344 L9.72220632,51.9841454 L9.72220632,52 L6.06774632,48.8122589 L6.06774632,51.992344 L5.15976737,51.992344 L5.15976737,46.6746596" id="Fill-3" fill="#5A5D5F" sketch:type="MSShapeGroup" mask="url(#mask-4)"></path>
                                </g>
                                <g id="Fill-4-Clipped">
                                    <mask id="mask-6" sketch:name="path-1" fill="white">
                                        <use xlink:href="#path-5"></use>
                                    </mask>
                                    <g id="path-1"></g>
                                    <path d="M13.9743674,46.6823759 L18.5445695,46.6823759 L18.5445695,47.5711383 L16.7214695,47.5711383 L16.7214695,52 L15.8057895,52 L15.8057895,47.5711383 L13.9743674,47.5711383 L13.9743674,46.6823759" id="Fill-4" fill="#5A5D5F" sketch:type="MSShapeGroup" mask="url(#mask-6)"></path>
                                </g>
                                <g id="Fill-5-Clipped">
                                    <mask id="mask-8" sketch:name="path-1" fill="white">
                                        <use xlink:href="#path-7"></use>
                                    </mask>
                                    <g id="path-1"></g>
                                    <path d="M33.5615947,47.5711383 L31.7303589,47.5711383 L31.7303589,49.3332305 L33.5615947,49.3408262 C33.8087116,49.3408262 34.0216705,49.2543191 34.2010926,49.080883 C34.3797695,48.9071454 34.4691389,48.6972979 34.4691389,48.4524255 C34.4691389,48.2119539 34.3797695,48.0053014 34.2010926,47.831383 C34.0216705,47.6584291 33.8087116,47.5711383 33.5615947,47.5711383 L33.5615947,47.5711383 L33.5615947,47.5711383 Z M34.3347432,52 L33.2774632,50.2298298 L31.7303589,50.2298298 L31.7303589,52 L30.8221937,52 L30.8221937,46.6823759 L33.5615947,46.6823759 C34.0615421,46.6823759 34.4904411,46.8559326 34.8480432,47.203227 C35.2060179,47.5506418 35.3845705,47.9671418 35.3845705,48.4524255 C35.3845705,48.8199149 35.2770663,49.1544291 35.0613126,49.4561489 C34.8509,49.7524433 34.5822326,49.9644007 34.2560558,50.0922624 L35.3845705,52 L34.3347432,52 L34.3347432,52 Z" id="Fill-5" fill="#5A5D5F" sketch:type="MSShapeGroup" mask="url(#mask-8)">
                                        <g transform="translate(33.103382, 49.341188) scale(-1, 1) translate(-33.103382, -49.341188) "></g>
                                    </path>
                                </g>
                                <g id="Fill-6-Clipped">
                                    <mask id="mask-10" sketch:name="path-1" fill="white">
                                        <use xlink:href="#path-9"></use>
                                    </mask>
                                    <g id="path-1"></g>
                                    <path d="M26.2838011,46.6823759 L26.2838011,47.5711383 L23.5444621,47.5711383 L23.5444621,48.9043723 L26.2838011,48.9043723 L26.2838011,49.785539 L23.5444621,49.785539 L23.5444621,51.1114184 L26.2838011,51.1114184 L26.2838011,52 L22.6366074,52 L22.6366074,46.6823759 L26.2838011,46.6823759" id="Fill-6" fill="#5A5D5F" sketch:type="MSShapeGroup" mask="url(#mask-10)"></path>
                                </g>
                                <g id="Fill-7-Clipped">
                                    <mask id="mask-12" sketch:name="path-1" fill="white">
                                        <use xlink:href="#path-11"></use>
                                    </mask>
                                    <g id="path-1"></g>
                                    <path d="M41.0284137,47.5711383 L41.0284137,49.3408262 L42.8597116,49.3408262 C43.1072011,49.3408262 43.3202221,49.2543191 43.4988368,49.080883 C43.6778242,48.9071454 43.7675663,48.7000106 43.7675663,48.4601418 C43.7675663,48.2148475 43.6778242,48.0053014 43.4988368,47.831383 C43.3202221,47.6584291 43.1072011,47.5711383 42.8597116,47.5711383 L41.0284137,47.5711383 L41.0284137,47.5711383 Z M41.0284137,50.2298298 L41.0284137,52 L40.1206211,52 L40.1206211,46.6823759 L42.8597116,46.6823759 C43.3597211,46.6823759 43.7884337,46.8559326 44.1463463,47.203227 C44.5041968,47.5506418 44.6832463,47.9693121 44.6832463,48.4601418 C44.6832463,48.9453652 44.5041968,49.3642766 44.1463463,49.7163333 C43.7884337,50.0589858 43.3597211,50.2298298 42.8597116,50.2298298 L41.0284137,50.2298298 L41.0284137,50.2298298 Z" id="Fill-7" fill="#5A5D5F" sketch:type="MSShapeGroup" mask="url(#mask-12)"></path>
                                </g>
                                <g id="Fill-8-Clipped">
                                    <mask id="mask-14" sketch:name="path-1" fill="white">
                                        <use xlink:href="#path-13"></use>
                                    </mask>
                                    <g id="path-1"></g>
                                    <path d="M48.8587695,46.6823759 L49.7666863,46.6823759 L49.7666863,51.996383 L48.8587695,51.996383 L48.8587695,46.6823759 L48.8587695,46.6823759 Z" id="Fill-8" fill="#5A5D5F" sketch:type="MSShapeGroup" mask="url(#mask-14)"></path>
                                </g>
                                <g id="Fill-9-Clipped">
                                    <mask id="mask-16" sketch:name="path-1" fill="white">
                                        <use xlink:href="#path-15"></use>
                                    </mask>
                                    <g id="path-1"></g>
                                    <path d="M56.2489853,51.1114184 C56.7489326,51.1114184 57.1774589,50.9401525 57.5357442,50.5979823 C57.8937189,50.2454433 58.0723958,49.8264716 58.0723958,49.3408262 C58.0723958,48.8557234 57.8937189,48.4395248 57.5357442,48.0922305 C57.1774589,47.7447553 56.7489326,47.5711383 56.2489853,47.5711383 L55.3333053,47.5711383 L55.3333053,51.1114184 L56.2489853,51.1114184 L56.2489853,51.1114184 Z M54.4260095,46.6823759 L56.2489853,46.6823759 C57.0068558,46.6823759 57.65126,46.9428014 58.1832537,47.4643156 C58.7197811,47.9848652 58.9884484,48.6109113 58.9884484,49.3408262 C58.9884484,50.0766489 58.7197811,50.7025142 58.1832537,51.218422 C57.65126,51.7394539 57.0068558,52 56.2489853,52 L54.4260095,52 L54.4260095,46.6823759 L54.4260095,46.6823759 Z" id="Fill-9" fill="#5A5D5F" sketch:type="MSShapeGroup" mask="url(#mask-16)"></path>
                                </g>
                            </g>
                            <path d="M31.1402224,0.998492908 L28,4.35849291 L29.9222828,4.35849291 C34.8183826,4.35849291 38.7902578,8.33436846 38.7902578,13.228084 L38.7902578,13.2473729 C38.7902578,13.8422174 38.7284395,14.4384929 38.6166311,14.9984929 L46.1964439,14.9984929 L59,0.998492908 L31.1402224,0.998492908" id="Fill-11" fill="#5A5D5F" sketch:type="MSShapeGroup"></path>
                            <path d="M31.3040143,17.3884748 L30.0497452,17.3884748 L27.8791847,15.3104236 L23.9459979,11.5305044 C24.7704561,10.0743701 26.370737,9.08916594 28.2098085,9.08916594 C30.8922487,9.08916594 33.0666407,11.185068 33.0666407,13.7764975 C33.0666407,15.2319751 32.3806118,16.5526453 31.3040143,17.3884748 L31.3040143,17.3884748 L31.3040143,17.3884748 Z M43,17.9257937 L33.4780355,17.9257937 C34.4414176,16.8511558 35.0196693,15.3513793 35.0196693,13.7692138 C35.0196693,10.1358035 31.9708856,7.19643016 28.2098085,7.19643016 C26.8007333,7.19643016 25.4915867,7.61285233 24.4053486,8.32109838 L23.4333765,7.38938735 C23.485473,7.26992344 23.5142712,7.13929524 23.5142712,7.00156249 C23.5142712,6.44824339 23.0499148,6 22.4772868,6 C21.9044116,6 21.4401787,6.44866131 21.4401787,7.00204011 C21.4401787,7.5553592 21.9044116,8.00390111 22.4772868,8.00390111 C22.6482841,8.00390111 22.8090229,7.96330368 22.9511602,7.89255668 L23.834451,8.74026685 C23.146012,9.29860092 22.573384,9.98601094 22.1570452,10.7641085 L8.14873255,10.771213 L5.31476159,13.6576306 L9.55484144,18.111109 L11.6030402,16.0750285 L17.0250228,16.0750285 L15.1650015,17.9854958 L18.7501373,17.9854958 L17.4319681,19.4183463 L13.8307646,19.4183463 L11.485437,21.8661325 L15.0593872,21.8661325 L13.6972173,23.298983 L10.1511384,23.298983 L7.76557977,25.7467693 L14.7761632,25.7467693 L9.83565534,30.990405 L0,30.9922558 L4.4283191,35.5693773 L13.3224692,35.5612578 L24.9227285,23.298983 L35.0511867,23.298983 L30.3204859,28.2939595 L28.4757907,26.3678502 L25.0986697,26.4127462 L20.7137952,30.9883154 L25.6479378,30.9961364 L26.7904746,32.1988353 L19.6372595,39.5548509 L20.9902832,41 L28.108582,33.5572373 L32.1511528,37.8728635 L35.8420882,34.1374223 L31.8288718,29.8662144 L43,17.9257937 L43,17.9257937 Z" id="Fill-12" fill="#5A5D5F" sketch:type="MSShapeGroup"></path>
                        </g>
                    </g>
                </g>
            </g>
        </g>
    </g>
</svg>